<?xml version="1.0" encoding="utf-8"?>
<!-- Generator: Adobe Illustrator 18.1.1, SVG Export Plug-In . SVG Version: 6.00 Build 0)  -->
<svg version="1.1" id="Layer_1" xmlns="http://www.w3.org/2000/svg" xmlns:xlink="http://www.w3.org/1999/xlink" x="0px" y="0px"
	 viewBox="0 0 1169 4" enable-background="new 0 0 1169 4" xml:space="preserve">
<g>
	<defs>
		<rect id="SVGID_1_" width="1169" height="4"/>
	</defs>
	<clipPath id="SVGID_2_">
		<use xlink:href="#SVGID_1_"  overflow="visible"/>
	</clipPath>
	<path clip-path="url(#SVGID_2_)" fill="none" stroke="#BEBEBE" stroke-width="1.06" d="M0,2c2-2,6-2,8,0c2,2,6,2,8,0c2-2,6-2,8,0
		c2,2,6,2,8,0c2-2,6-2,8,0c2,2,6,2,8,0c2-2,6-2,8,0s6,2,8,0c2-2,6-2,8,0c2,2,6,2,8,0c2-2,6-2,8,0c2,2,6,2,8,0c2-2,6-2,8,0
		c2,2,6,2,8,0s6-2,8,0c2,2,6,2,8,0c2-2,6-2,8,0c2,2,6,2,8,0c2-2,6-2,8,0c2,2,6,2,8,0c2-2,6-2,8,0s6,2,8,0c2-2,6-2,8,0c2,2,6,2,8,0
		c2-2,6-2,8,0c2,2,6,2,8,0c2-2,6-2,8,0c2,2,6,2,8,0s6-2,8,0c2,2,6,2,8,0c2-2,6-2,8,0c2,2,6,2,8,0c2-2,6-2,8,0c2,2,6,2,8,0
		c2-2,6-2,8,0s6,2,8,0c2-2,6-2,8,0c2,2,6,2,8,0c2-2,6-2,8,0c2,2,6,2,8,0c2-2,6-2,8,0c2,2,6,2,8,0s6-2,8,0c2,2,6,2,8,0c2-2,6-2,8,0
		c2,2,6,2,8,0c2-2,6-2,8,0c2,2,6,2,8,0c2-2,6-2,8,0s6,2,8,0c2-2,6-2,8,0c2,2,6,2,8,0c2-2,6-2,8,0c2,2,6,2,8,0c2-2,6-2,8,0
		c2,2,6,2,8,0"/>
	<path clip-path="url(#SVGID_2_)" fill="none" stroke="#BEBEBE" stroke-width="1.06" d="M719.7,2c2-2,6-2,8,0c2,2,6,2,8,0s6-2,8,0
		c2,2,6,2,8,0s6-2,8,0c2,2,6,2,8,0c2-2,6-2,8,0c2,2,6,2,8,0s6-2,8,0c2,2,6,2,8,0s6-2,8,0s6,2,8,0c2-2,6-2,8,0c2,2,6,2,8,0
		c2-2,6-2,8,0c2,2,6,2,8,0s6-2,8,0s6,2,8,0c2-2,6-2,8,0c2,2,6,2,8,0c2-2,6-2,8,0c2,2,6,2,8,0s6-2,8,0s6,2,8,0c2-2,6-2,8,0s6,2,8,0
		c2-2,6-2,8,0c2,2,6,2,8,0c2-2,6-2,8,0s6,2,8,0c2-2,6-2,8,0s6,2,8,0c2-2,6-2,8,0c2,2,6,2,8,0c2-2,6-2,8,0c2,2,6,2,8,0s6-2,8,0
		s6,2,8,0c2-2,6-2,8,0s6,2,8,0c2-2,6-2,8,0s6,2,8,0c2-2,6-2,8,0s6,2,8,0s6-2,8,0c2,2,6,2,8,0s6-2,8,0c2,2,6,2,8,0s6-2,8,0s6,2,8,0
		s6-2,8,0s6,2,8,0s6-2,8,0s6,2,8,0c2-2,6-2,8,0s6,2,8,0"/>
</g>
</svg>
