<?xml version="1.0" encoding="utf-8"?>
<!-- Generator: Adobe Illustrator 18.1.1, SVG Export Plug-In . SVG Version: 6.00 Build 0)  -->
<svg version="1.1" id="Layer_1" xmlns="http://www.w3.org/2000/svg" xmlns:xlink="http://www.w3.org/1999/xlink" x="0px" y="0px"
	 viewBox="0 0 226.4 100" enable-background="new 0 0 226.4 100" xml:space="preserve">
<g>
	<defs>
		<rect id="SVGID_1_" width="226.4" height="100"/>
	</defs>
	<clipPath id="SVGID_2_">
		<use xlink:href="#SVGID_1_"  overflow="visible"/>
	</clipPath>
	<path clip-path="url(#SVGID_2_)" fill="#FFFFFF" d="M42.6,43.8c1.8,0,2.9,1,2.9,2c0,4.9-12.1,9.7-25.4,10
		C26.9,49.1,36.6,43.8,42.6,43.8 M68.5,61.7c0.5,0,0.7,0.2,0.7,0.6c0,2.6-5.1,8.8-7.8,8.8c-1,0-1.7-0.7-1.8-1.4
		C62.2,66.2,67,61.7,68.5,61.7 M62.9,72.1c3.1,0,9-4.7,9-8.2c0-1.5-1.6-3.3-2.8-3.3c-2,0-7.2,5.2-8.4,6.4c1.5-3,3.5-5.1,3.5-5.8
		s-1.2-2.2-1.8-2.2c-0.2,0-0.3,0.1-0.3,0.2c-0.8,1.4-2.9,4.7-5,8.6c-1.6,1.2-3.8,2.6-5.2,2.6c-0.4,0-0.6-0.2-0.6-0.5
		c0-1.2,1.7-3.3,1.7-4.1c0-0.7-0.9-2-1.6-2c-1.7,0-8.8,8.5-10.6,8.5c-0.3,0-0.4-0.2-0.4-0.5c0-2.2,5.2-7.5,5.2-8.8
		c0-1.2-1.2-2.6-2-2.6c-0.3,0-0.4,0.1-0.4,0.3c0,1.1-2,3.3-3.5,5.6c0,0-0.1,0-0.1,0c-5,4.6-11.8,9.2-20,9.2c-4.3,0-7.1-1.9-7.1-5.6
		c0-4.2,2.5-8.7,6.3-12.9h0.7c12,0,26.9-6.2,26.9-10.8c0-1.9-1.6-4.8-5.1-4.8c-7,0-18.4,6.4-25.5,14.1c-8.1-0.5-14.5-3-14.5-7.5
		c0-4.5,6.2-6.9,11.9-6.9c4.9,0,7.9,2,8.9,2.7c0.3,0.2,0.5,0.4,0.6,0.4c0.1,0,0.3-0.1,0.3-0.3c0-0.1-0.1-0.3-0.3-0.4
		c-1.2-1.1-4.8-4.1-10.9-4.1c-5.4,0-11.3,3.3-11.3,8.1c0,5.1,5.7,8.4,14.2,9.3c-3.1,3.7-5.1,7.7-5.1,11.3c0,4.6,5.5,8.5,10.2,8.5
		c6.9,0,15.2-5.6,19.1-9.1c-0.6,1-1,2-1,2.9c0,1.7,1.8,2.7,2.8,2.7c1.6,0,7.6-7,8.3-7c0.2,0,0.2,0.1,0.2,0.1c0,0.7-0.5,1.4-0.5,2.7
		c0,1.5,1.2,2.2,2.4,2.2c1.7,0,3.9-1.4,5.6-2.5c-2.6,5-5.2,10.6-5.2,14.1c0,0.9,1,1.9,1.4,1.9c0.2,0,0.2-0.1,0.2-0.3
		c0-3.5,3-9.8,6.1-14.2C59.5,71.2,60.7,72.1,62.9,72.1"/>
	<path clip-path="url(#SVGID_2_)" fill="none" stroke="#FFFFFF" stroke-width="0.668" stroke-miterlimit="10" d="M42.6,43.8
		c1.8,0,2.9,1,2.9,2c0,4.9-12.1,9.7-25.4,10C26.9,49.1,36.6,43.8,42.6,43.8z M68.5,61.7c0.5,0,0.7,0.2,0.7,0.6
		c0,2.6-5.1,8.8-7.8,8.8c-1,0-1.7-0.7-1.8-1.4C62.2,66.2,67,61.7,68.5,61.7z M62.9,72.1c3.1,0,9-4.7,9-8.2c0-1.5-1.6-3.3-2.8-3.3
		c-2,0-7.2,5.2-8.4,6.4c1.5-3,3.5-5.1,3.5-5.8s-1.2-2.2-1.8-2.2c-0.2,0-0.3,0.1-0.3,0.2c-0.8,1.4-2.9,4.7-5,8.6
		c-1.6,1.2-3.8,2.6-5.2,2.6c-0.4,0-0.6-0.2-0.6-0.5c0-1.2,1.7-3.3,1.7-4.1c0-0.7-0.9-2-1.6-2c-1.7,0-8.8,8.5-10.6,8.5
		c-0.3,0-0.4-0.2-0.4-0.5c0-2.2,5.2-7.5,5.2-8.8c0-1.2-1.2-2.6-2-2.6c-0.3,0-0.4,0.1-0.4,0.3c0,1.1-2,3.3-3.5,5.6c0,0-0.1,0-0.1,0
		c-5,4.6-11.8,9.2-20,9.2c-4.3,0-7.1-1.9-7.1-5.6c0-4.2,2.5-8.7,6.3-12.9h0.7c12,0,26.9-6.2,26.9-10.8c0-1.9-1.6-4.8-5.1-4.8
		c-7,0-18.4,6.4-25.5,14.1c-8.1-0.5-14.5-3-14.5-7.5c0-4.5,6.2-6.9,11.9-6.9c4.9,0,7.9,2,8.9,2.7c0.3,0.2,0.5,0.4,0.6,0.4
		c0.1,0,0.3-0.1,0.3-0.3c0-0.1-0.1-0.3-0.3-0.4c-1.2-1.1-4.8-4.1-10.9-4.1c-5.4,0-11.3,3.3-11.3,8.1c0,5.1,5.7,8.4,14.2,9.3
		c-3.1,3.7-5.1,7.7-5.1,11.3c0,4.6,5.5,8.5,10.2,8.5c6.9,0,15.2-5.6,19.1-9.1c-0.6,1-1,2-1,2.9c0,1.7,1.8,2.7,2.8,2.7
		c1.6,0,7.6-7,8.3-7c0.2,0,0.2,0.1,0.2,0.1c0,0.7-0.5,1.4-0.5,2.7c0,1.5,1.2,2.2,2.4,2.2c1.7,0,3.9-1.4,5.6-2.5
		c-2.6,5-5.2,10.6-5.2,14.1c0,0.9,1,1.9,1.4,1.9c0.2,0,0.2-0.1,0.2-0.3c0-3.5,3-9.8,6.1-14.2C59.5,71.2,60.7,72.1,62.9,72.1z"/>
	<path clip-path="url(#SVGID_2_)" fill="#FFFFFF" d="M191.1,70.2c-1.8-0.1-3.3-0.7-4.2-1.7c1.1-2.1,3.7-4.1,5.5-5.1
		c0.3-0.1,0.6-0.4,0.6-0.6c0-0.5-1-1.8-1.6-1.8c-0.7,0-1.5,0.5-2.3,1.2c-1.1,0.8-2.2,1.8-3,3c0.6-3.1,4.2-5.2,6.1-5.2
		c2,0,2.9,1,2.9,2.5C195.3,65.5,193.2,68.5,191.1,70.2 M187.9,71.7c-0.8,0-1.4-0.7-1.4-1.5c0-0.4,0-0.7,0.2-1.1
		c0.9,0.9,2.3,1.4,3.9,1.5C189.7,71.3,188.7,71.7,187.9,71.7 M203.2,60.7c0-1.7,1.5-2.7,2-2.7c0.1,0,0.3,0.1,0.3,0.2
		c0,1-0.6,2.3-1.5,3.4C203.6,61.5,203.2,61.2,203.2,60.7 M204.1,62.3c0.5,0.2,0.9,0.5,0.9,0.9c0,1.5-2.6,4.6-2.6,7.4
		c0,3,2.4,4.8,4.6,4.8c0.2,0,0.4-0.1,0.4-0.3c0-0.1-0.1-0.2-0.2-0.2c-1.2-0.2-2.2-1.1-2.2-2.6c0-3.8,3.4-6.4,3.4-8.2
		c0-1.2-2.6-1.6-4.1-2.3c1.1-1.4,1.9-2.8,1.9-3.9c0-0.3-1.2-1.3-1.9-1.3c-1.2,0-3.4,1.5-3.4,3.3c0,1.1,1.5,1.6,2.7,2.1
		c-2.7,3.4-7.1,8-11.3,8c2.2-1.8,4.3-4.4,4.3-7.5c0-2-1.7-3.3-3.9-3.3c-2.6,0-7.2,2.8-7.2,6.8v0.3c-0.3,0.8-0.5,1.6-0.5,2.6
		c0,2.2,2.2,3.3,3.4,3.3c0.7,0,2-0.6,3.5-1.7C196.8,70.5,201.1,66,204.1,62.3"/>
	<path clip-path="url(#SVGID_2_)" fill="none" stroke="#FFFFFF" stroke-width="0.668" stroke-miterlimit="10" d="M191.1,70.2
		c-1.8-0.1-3.3-0.7-4.2-1.7c1.1-2.1,3.7-4.1,5.5-5.1c0.3-0.1,0.6-0.4,0.6-0.6c0-0.5-1-1.8-1.6-1.8c-0.7,0-1.5,0.5-2.3,1.2
		c-1.1,0.8-2.2,1.8-3,3c0.6-3.1,4.2-5.2,6.1-5.2c2,0,2.9,1,2.9,2.5C195.3,65.5,193.2,68.5,191.1,70.2z M187.9,71.7
		c-0.8,0-1.4-0.7-1.4-1.5c0-0.4,0-0.7,0.2-1.1c0.9,0.9,2.3,1.4,3.9,1.5C189.7,71.3,188.7,71.7,187.9,71.7z M203.2,60.7
		c0-1.7,1.5-2.7,2-2.7c0.1,0,0.3,0.1,0.3,0.2c0,1-0.6,2.3-1.5,3.4C203.6,61.5,203.2,61.2,203.2,60.7z M204.1,62.3
		c0.5,0.2,0.9,0.5,0.9,0.9c0,1.5-2.6,4.6-2.6,7.4c0,3,2.4,4.8,4.6,4.8c0.2,0,0.4-0.1,0.4-0.3c0-0.1-0.1-0.2-0.2-0.2
		c-1.2-0.2-2.2-1.1-2.2-2.6c0-3.8,3.4-6.4,3.4-8.2c0-1.2-2.6-1.6-4.1-2.3c1.1-1.4,1.9-2.8,1.9-3.9c0-0.3-1.2-1.3-1.9-1.3
		c-1.2,0-3.4,1.5-3.4,3.3c0,1.1,1.5,1.6,2.7,2.1c-2.7,3.4-7.1,8-11.3,8c2.2-1.8,4.3-4.4,4.3-7.5c0-2-1.7-3.3-3.9-3.3
		c-2.6,0-7.2,2.8-7.2,6.8v0.3c-0.3,0.8-0.5,1.6-0.5,2.6c0,2.2,2.2,3.3,3.4,3.3c0.7,0,2-0.6,3.5-1.7C196.8,70.5,201.1,66,204.1,62.3z
		"/>
	<path clip-path="url(#SVGID_2_)" fill="#FFFFFF" d="M203.7,87.2c-0.9,0-2-0.7-2-2c0-4.2,6.4-7.7,13.2-8.9
		C212,81.5,208,87.2,203.7,87.2 M225.3,60c-1.2,0-3.2,3.5-5.7,6.4c-2.6,2.9-6.4,5-7.5,5c-0.3,0-0.5-0.1-0.5-0.4
		c0-1.6,5.1-7.1,5.1-8.3c0-0.9-1.7-2.2-2.2-2.2c-0.3,0-0.4,0.1-0.4,0.3c0,1.9-4.8,6.4-4.8,8.5c0,2,1.6,2.8,2.4,2.8
		c1.3,0,5.4-2.4,7.2-4.2c0,0-1.4,3.5-3.5,7.4c-6.4,1.1-14.3,5-14.3,9.8c0,1.6,1.4,3.1,3.8,3.1c5.6,0,9.9-6.1,13.2-12.3
		c0.4-0.1,1-0.1,1.4-0.1c2.7,0,3,1.3,3.3,1.3c0.1,0,0.2-0.1,0.2-0.2c0-0.3-0.8-1.9-4.1-1.9h-0.4c1.7-3.3,3-6.6,3.9-9.1
		c1.2-2.9,2-3.9,3.3-4.7c0.1-0.1,0.4-0.2,0.4-0.4C226.1,60.6,225.6,60,225.3,60"/>
	<path clip-path="url(#SVGID_2_)" fill="none" stroke="#FFFFFF" stroke-width="0.668" stroke-miterlimit="10" d="M203.7,87.2
		c-0.9,0-2-0.7-2-2c0-4.2,6.4-7.7,13.2-8.9C212,81.5,208,87.2,203.7,87.2z M225.3,60c-1.2,0-3.2,3.5-5.7,6.4c-2.6,2.9-6.4,5-7.5,5
		c-0.3,0-0.5-0.1-0.5-0.4c0-1.6,5.1-7.1,5.1-8.3c0-0.9-1.7-2.2-2.2-2.2c-0.3,0-0.4,0.1-0.4,0.3c0,1.9-4.8,6.4-4.8,8.5
		c0,2,1.6,2.8,2.4,2.8c1.3,0,5.4-2.4,7.2-4.2c0,0-1.4,3.5-3.5,7.4c-6.4,1.1-14.3,5-14.3,9.8c0,1.6,1.4,3.1,3.8,3.1
		c5.6,0,9.9-6.1,13.2-12.3c0.4-0.1,1-0.1,1.4-0.1c2.7,0,3,1.3,3.3,1.3c0.1,0,0.2-0.1,0.2-0.2c0-0.3-0.8-1.9-4.1-1.9h-0.4
		c1.7-3.3,3-6.6,3.9-9.1c1.2-2.9,2-3.9,3.3-4.7c0.1-0.1,0.4-0.2,0.4-0.4C226.1,60.6,225.6,60,225.3,60z"/>
	<path clip-path="url(#SVGID_2_)" fill="#FFFFFF" d="M166.4,57.7c-9.1,3.3-18.4,6.7-23.1,11.1c-0.1-0.4-0.1-0.9-0.1-1.3
		c0-8.9,8-14.6,16.2-14.6C163.7,52.9,166.3,54.9,166.4,57.7 M167.8,57.8c2.8-1,5.5-2,8.1-3.1c-4.8,10-10.4,22-22,22
		c-3.6,0-8.1-1.8-9.9-5.6c3.7-5.5,13-9.3,22.3-12.8c-0.4,4.2-4.8,8-8.8,8c-0.2,0-0.4,0.1-0.4,0.2c0,0.2,1.1,1.1,2.8,1.1
		c2.6,0,8-3.5,8-8.7C168,58.6,168,58.2,167.8,57.8 M187.9,42.5c0.8,0,1.3,0.6,1.3,1.2c0,2.9-5.1,6.6-9.9,8.8
		C181.7,46.9,184,42.5,187.9,42.5 M140.9,65.8c0,1.6,0.4,3.1,1.2,4.4c-1.1,1.3-1.7,2.8-1.7,4.3c0,4.2,4.4,6.2,4.7,6.2
		c0.2,0,0.4-0.1,0.4-0.4c0-0.2-3.2-1.1-3.2-4.2c0-1.4,0.4-2.8,1-4c3,3.8,8.4,6.2,12.9,6.2c13.7,0,18.7-14.3,22.6-24.9
		c5.6-2.8,10.9-6.4,10.9-9.5c0-1.3-0.9-2.3-2.3-2.3c-4.7,0-7.9,5.6-11.1,12.2c-2.7,1.1-5.7,2.2-8.8,3.3c-1.1-2.9-4.7-5.7-8.9-5.7
		C150,51.5,140.9,57.8,140.9,65.8"/>
	<path clip-path="url(#SVGID_2_)" fill="none" stroke="#FFFFFF" stroke-width="0.668" stroke-miterlimit="10" d="M166.4,57.7
		c-9.1,3.3-18.4,6.7-23.1,11.1c-0.1-0.4-0.1-0.9-0.1-1.3c0-8.9,8-14.6,16.2-14.6C163.7,52.9,166.3,54.9,166.4,57.7z M167.8,57.8
		c2.8-1,5.5-2,8.1-3.1c-4.8,10-10.4,22-22,22c-3.6,0-8.1-1.8-9.9-5.6c3.7-5.5,13-9.3,22.3-12.8c-0.4,4.2-4.8,8-8.8,8
		c-0.2,0-0.4,0.1-0.4,0.2c0,0.2,1.1,1.1,2.8,1.1c2.6,0,8-3.5,8-8.7C168,58.6,168,58.2,167.8,57.8z M187.9,42.5
		c0.8,0,1.3,0.6,1.3,1.2c0,2.9-5.1,6.6-9.9,8.8C181.7,46.9,184,42.5,187.9,42.5z M140.9,65.8c0,1.6,0.4,3.1,1.2,4.4
		c-1.1,1.3-1.7,2.8-1.7,4.3c0,4.2,4.4,6.2,4.7,6.2c0.2,0,0.4-0.1,0.4-0.4c0-0.2-3.2-1.1-3.2-4.2c0-1.4,0.4-2.8,1-4
		c3,3.8,8.4,6.2,12.9,6.2c13.7,0,18.7-14.3,22.6-24.9c5.6-2.8,10.9-6.4,10.9-9.5c0-1.3-0.9-2.3-2.3-2.3c-4.7,0-7.9,5.6-11.1,12.2
		c-2.7,1.1-5.7,2.2-8.8,3.3c-1.1-2.9-4.7-5.7-8.9-5.7C150,51.5,140.9,57.8,140.9,65.8z"/>
	<path clip-path="url(#SVGID_2_)" fill="#FFFFFF" d="M110.6,68.6c0,1,3.5,4.2,5.6,4.2c1,0,2.5-0.8,3.8-1.8c0.4-0.3,0.6-0.4,0.6-0.6
		c0-0.1-0.1-0.2-0.2-0.2c-0.1,0-0.3,0.1-0.5,0.2c-1.1,0.5-2.4,0.8-3.3,0.8c-1.7,0-4.1-1.3-4.1-1.6c0-0.6,7.7-3.5,7.7-6.1
		c0-1.1-0.7-2.7-2.2-2.7c-1.9,0-7.7,3.1-10.7,7.2c1.3-5.5,4.8-9.2,8.9-14c0.3-0.4,0.7-0.6,0.7-1c0-1.1-1-2.5-1.6-2.5
		c-0.5,0-0.8,0.5-1.2,0.9c-3.7,4.9-7.1,10.2-8.6,15c-0.7,0.6-4.9,4.3-7.1,4.3c-0.6,0-1.1-0.3-1.1-0.9c0-1.4,2.2-3,2.2-3.6
		c0-0.7-1.3-2-1.8-2c-0.4,0-1.6,0.9-3.1,2.3c-2.3,2.3-6,5.5-6.9,5.5c-0.4,0-0.7-0.2-0.7-0.6c0-3.2,6.5-9.7,11.3-9.7
		c0.3,0,0.9,0.4,0.9,0.7c0,0.5-0.3,0.7-0.3,0.9c0,0.2,0.3,0.4,0.5,0.4c0.1,0,0.4-0.4,0.4-1.2c0-1-1.9-2.7-3.8-2.7
		c-3.3,0-8.1,3.8-10.1,7.2c-2,1.7-6.5,5-9.3,5c-1.3,0-1.9-0.9-1.9-2.1c0-4,4.8-8.6,7.5-8.6c0.4,0,0.5,0.2,0.5,0.5
		c0,0.5-0.5,1.4-1.3,2.1c-0.1,0.1-0.2,0.2-0.2,0.2c0,0.1,0.1,0.1,0.1,0.1c0.2,0,0.6-0.1,0.7-0.1c0.9-0.9,1.3-1.8,1.3-2.3
		c0-1.2-1.3-2.1-2.5-2.1c-3.1,0-8.6,5.2-8.6,9.8c0,2.2,1.9,3.3,3.7,3.3c2.9,0,7.2-3.1,9.5-5c-0.3,0.7-0.5,1.4-0.5,2
		c0,1.4,1.8,2.7,2.9,2.7c1.2,0,4.7-3.4,7.2-5.7c0,0-0.1,0.8-0.1,1.7c0,1.8,1.4,2.8,3,2.8c2.4,0,6.4-3.5,7.6-4.6
		c-0.4,1.4-0.6,2.8-0.6,4.1c0,0.4,0.8,0.9,1.2,0.9c0.4,0,0.4-1.8,2-3.9c2.8-3.8,8.6-6.7,10.3-6.7c0.1,0,0.1,0.1,0.1,0.2
		C118.2,63.9,110.6,67.6,110.6,68.6"/>
	<path clip-path="url(#SVGID_2_)" fill="none" stroke="#FFFFFF" stroke-width="0.668" stroke-miterlimit="10" d="M110.6,68.6
		c0,1,3.5,4.2,5.6,4.2c1,0,2.5-0.8,3.8-1.8c0.4-0.3,0.6-0.4,0.6-0.6c0-0.1-0.1-0.2-0.2-0.2c-0.1,0-0.3,0.1-0.5,0.2
		c-1.1,0.5-2.4,0.8-3.3,0.8c-1.7,0-4.1-1.3-4.1-1.6c0-0.6,7.7-3.5,7.7-6.1c0-1.1-0.7-2.7-2.2-2.7c-1.9,0-7.7,3.1-10.7,7.2
		c1.3-5.5,4.8-9.2,8.9-14c0.3-0.4,0.7-0.6,0.7-1c0-1.1-1-2.5-1.6-2.5c-0.5,0-0.8,0.5-1.2,0.9c-3.7,4.9-7.1,10.2-8.6,15
		c-0.7,0.6-4.9,4.3-7.1,4.3c-0.6,0-1.1-0.3-1.1-0.9c0-1.4,2.2-3,2.2-3.6c0-0.7-1.3-2-1.8-2c-0.4,0-1.6,0.9-3.1,2.3
		c-2.3,2.3-6,5.5-6.9,5.5c-0.4,0-0.7-0.2-0.7-0.6c0-3.2,6.5-9.7,11.3-9.7c0.3,0,0.9,0.4,0.9,0.7c0,0.5-0.3,0.7-0.3,0.9
		c0,0.2,0.3,0.4,0.5,0.4c0.1,0,0.4-0.4,0.4-1.2c0-1-1.9-2.7-3.8-2.7c-3.3,0-8.1,3.8-10.1,7.2c-2,1.7-6.5,5-9.3,5
		c-1.3,0-1.9-0.9-1.9-2.1c0-4,4.8-8.6,7.5-8.6c0.4,0,0.5,0.2,0.5,0.5c0,0.5-0.5,1.4-1.3,2.1c-0.1,0.1-0.2,0.2-0.2,0.2
		c0,0.1,0.1,0.1,0.1,0.1c0.2,0,0.6-0.1,0.7-0.1c0.9-0.9,1.3-1.8,1.3-2.3c0-1.2-1.3-2.1-2.5-2.1c-3.1,0-8.6,5.2-8.6,9.8
		c0,2.2,1.9,3.3,3.7,3.3c2.9,0,7.2-3.1,9.5-5c-0.3,0.7-0.5,1.4-0.5,2c0,1.4,1.8,2.7,2.9,2.7c1.2,0,4.7-3.4,7.2-5.7
		c0,0-0.1,0.8-0.1,1.7c0,1.8,1.4,2.8,3,2.8c2.4,0,6.4-3.5,7.6-4.6c-0.4,1.4-0.6,2.8-0.6,4.1c0,0.4,0.8,0.9,1.2,0.9
		c0.4,0,0.4-1.8,2-3.9c2.8-3.8,8.6-6.7,10.3-6.7c0.1,0,0.1,0.1,0.1,0.2C118.2,63.9,110.6,67.6,110.6,68.6z"/>
	<path clip-path="url(#SVGID_2_)" fill="#FFFFFF" d="M156.1,97.5c-6.7,0-14.7-2-23.5-4.6c8.5-3.6,17.8-6.6,26.2-6.6
		c3.9,0,14,0.5,14,5.4C172.9,96.4,159.3,97.5,156.1,97.5 M161.3,84.3c-9.9,0-20.9,3.9-30.3,8.2c-16.1-4.8-34.8-11.3-53.1-11.3
		c-7.2,0-19.2,1.1-23.9,7c0,0-0.3,0.4-0.2,0.4c0.1,0.1,0.4-0.2,0.4-0.2c6.2-4,15.9-5,20-5c19.4,0,35.1,5.2,53.1,10.8
		c-1.4,0.7-2.8,1.4-4.1,2c-0.7,0.3-1.2,0.9-1.7,1.4c-0.1,0.1-0.8,0.9-0.2,0.6c2.4-1.2,4.8-2.4,7.4-3.5c8.2,2.5,16.7,5,25.4,5
		c7.5,0,21-3.1,21-9.9C175.3,84.7,164.4,84.3,161.3,84.3"/>
	<path clip-path="url(#SVGID_2_)" fill="none" stroke="#FFFFFF" stroke-width="0.668" stroke-miterlimit="10" d="M156.1,97.5
		c-6.7,0-14.7-2-23.5-4.6c8.5-3.6,17.8-6.6,26.2-6.6c3.9,0,14,0.5,14,5.4C172.9,96.4,159.3,97.5,156.1,97.5z M161.3,84.3
		c-9.9,0-20.9,3.9-30.3,8.2c-16.1-4.8-34.8-11.3-53.1-11.3c-7.2,0-19.2,1.1-23.9,7c0,0-0.3,0.4-0.2,0.4c0.1,0.1,0.4-0.2,0.4-0.2
		c6.2-4,15.9-5,20-5c19.4,0,35.1,5.2,53.1,10.8c-1.4,0.7-2.8,1.4-4.1,2c-0.7,0.3-1.2,0.9-1.7,1.4c-0.1,0.1-0.8,0.9-0.2,0.6
		c2.4-1.2,4.8-2.4,7.4-3.5c8.2,2.5,16.7,5,25.4,5c7.5,0,21-3.1,21-9.9C175.3,84.7,164.4,84.3,161.3,84.3z"/>
	<path clip-path="url(#SVGID_2_)" fill="#FFFFFF" d="M128.5,61.3c0.2,0,0.4,0.1,0.4,0.5c0,1-2.7,3.3-5,4.7
		C125.5,63.1,127.7,61.3,128.5,61.3 M130,61.8c0-0.6-0.8-2.2-2.2-2.2c-2.2,0-6.7,4.4-6.7,8.6c0,2.5,1.9,3.9,3.9,3.9
		c2.1,0,3.2-1.1,4.2-2.1c0.3-0.3,0.5-0.6,0.5-0.7c0-0.1-0.1-0.2-0.2-0.2c-0.1,0-0.3,0.1-0.5,0.4c-0.8,0.7-1.9,1.7-2.9,1.7
		c-1.3,0-2.3-1.1-2.3-2.7c0-0.3,0.1-1.1,0.1-1.4C126.7,65.6,130,63.1,130,61.8"/>
	<path clip-path="url(#SVGID_2_)" fill="none" stroke="#FFFFFF" stroke-width="0.668" stroke-miterlimit="10" d="M128.5,61.3
		c0.2,0,0.4,0.1,0.4,0.5c0,1-2.7,3.3-5,4.7C125.5,63.1,127.7,61.3,128.5,61.3z M130,61.8c0-0.6-0.8-2.2-2.2-2.2
		c-2.2,0-6.7,4.4-6.7,8.6c0,2.5,1.9,3.9,3.9,3.9c2.1,0,3.2-1.1,4.2-2.1c0.3-0.3,0.5-0.6,0.5-0.7c0-0.1-0.1-0.2-0.2-0.2
		c-0.1,0-0.3,0.1-0.5,0.4c-0.8,0.7-1.9,1.7-2.9,1.7c-1.3,0-2.3-1.1-2.3-2.7c0-0.3,0.1-1.1,0.1-1.4C126.7,65.6,130,63.1,130,61.8z"/>
	<path clip-path="url(#SVGID_2_)" fill="#FFFFFF" d="M181.5,76.2c-1.6,0-2.4-0.8-2.4-2.9c0-5.4,5.8-13.2,9.4-18c0,0,0.9-0.2,2.6-0.2
		c2.5,0,4.4,0.3,4.6,0.3c0.1,0,0.2-0.1,0.2-0.3c0-0.1-2.9-0.6-5.4-0.6h-1.2c1.4-1.9,2.4-3.2,2.4-3.6c0-1.3-1.6-3.2-2.3-3.2
		c-0.2,0-0.3,0.1-0.3,0.3c0,1.2-1.5,3.7-3.3,6.7c-2.1,0.2-3.7,0.4-4.6,0.8c-0.2,0.1-0.2,0.2-0.2,0.3c0,0.3,0.7,1.1,1,1.1
		c0.1,0,1-0.5,2.9-0.8c-3.2,5.3-7.1,11.8-7.1,16.3c0,3.1,2.3,4.6,3.6,4.6c0.2,0,0.5,0,0.5-0.2C181.9,76.5,181.7,76.2,181.5,76.2"/>
	<path clip-path="url(#SVGID_2_)" fill="none" stroke="#FFFFFF" stroke-width="0.668" stroke-miterlimit="10" d="M181.5,76.2
		c-1.6,0-2.4-0.8-2.4-2.9c0-5.4,5.8-13.2,9.4-18c0,0,0.9-0.2,2.6-0.2c2.5,0,4.4,0.3,4.6,0.3c0.1,0,0.2-0.1,0.2-0.3
		c0-0.1-2.9-0.6-5.4-0.6h-1.2c1.4-1.9,2.4-3.2,2.4-3.6c0-1.3-1.6-3.2-2.3-3.2c-0.2,0-0.3,0.1-0.3,0.3c0,1.2-1.5,3.7-3.3,6.7
		c-2.1,0.2-3.7,0.4-4.6,0.8c-0.2,0.1-0.2,0.2-0.2,0.3c0,0.3,0.7,1.1,1,1.1c0.1,0,1-0.5,2.9-0.8c-3.2,5.3-7.1,11.8-7.1,16.3
		c0,3.1,2.3,4.6,3.6,4.6c0.2,0,0.5,0,0.5-0.2C181.9,76.5,181.7,76.2,181.5,76.2z"/>
	<path clip-path="url(#SVGID_2_)" fill="#FFFFFF" d="M118,2.1c1-0.7,2.6-1.3,3.4,1.1c0.9,3.1,0.1,6.1-1.3,8.9c0,0-0.8,1.4-1.3,2.3
		c-0.5,0.8,1.9-0.3,2.1-0.7l0.4-0.7c1.7-1.1,4.6-2.2,6.9-1.8c0.9,0.2,2.2,1.5,1.8,3.8c-1.2,5.4-5.7,7.1-9.3,6.8
		c-2.6-0.2-6.2-2-10.1-4C112.2,11.5,114.2,5.3,118,2.1 M73.5,55.4c11,1,18.3-2.8,21.5-5.1c1.1-0.9,1.7-1.7,1.7-2.1
		c0-0.6-0.5-2.6-0.8-2.7c-0.3,0-0.5,0.3-1.4,1c-3.5,2.8-10.4,8.3-21.9,7.2c-7.6-0.7-12.1-5.4-12.1-11c0-7.2,6.6-11.7,14.4-11.7
		c20.3,0,48.4,20.2,68.5,20.2c11.4-0.1,19.3-10.4,19.3-16.5c-0.1-8-8-11-15.8-11c-14.3-0.2-32.4,6.6-52.2,4.9
		c-4.7-0.4-10.7-2.9-10.7-8c0-3.3,2.8-6.1,8.6-6.1c4.8,0,10.7,2.3,16.1,4.6c-0.4,1.6-0.7,3.2-0.9,4.5c-0.1,1.2,1.3,2.5,1.4,1.9
		c0.4-1.8,0.8-3.8,1.2-5.7c4.3,1.9,8,3.5,10.4,3.8c4.3,0.4,10.1-1.8,11-6.7c0.4-2.4-1.2-6.8-3.5-7.7c-1.7-0.3-4.3,1.1-6.1,2.4
		c1.1-2.7,2-5.7,1.1-8.3c-0.7-2.1-3.7-4-6.1-2.6c-3.4,1.7-6.2,9.3-8,16.2c-5.3-2.7-11.2-5.5-16.7-5.5c-6.4-0.1-9.7,3.9-9.7,8.2
		c0,4.5,3.9,9.4,12.1,10.1c19.7,1.8,36.4-4.6,50.9-4.5c8.4,0,15.9,3.5,15.9,9.5c0,8-10,13.7-17.8,13.8c-18.9,0-45.1-20.2-69-20.2
		c-8,0-15.4,5.5-15.4,13.7C59.3,49.6,64.5,54.6,73.5,55.4"/>
	<path clip-path="url(#SVGID_2_)" fill="none" stroke="#FFFFFF" stroke-width="0.668" stroke-miterlimit="10" d="M118,2.1
		c1-0.7,2.6-1.3,3.4,1.1c0.9,3.1,0.1,6.1-1.3,8.9c0,0-0.8,1.4-1.3,2.3c-0.5,0.8,1.9-0.3,2.1-0.7l0.4-0.7c1.7-1.1,4.6-2.2,6.9-1.8
		c0.9,0.2,2.2,1.5,1.8,3.8c-1.2,5.4-5.7,7.1-9.3,6.8c-2.6-0.2-6.2-2-10.1-4C112.2,11.5,114.2,5.3,118,2.1z M73.5,55.4
		c11,1,18.3-2.8,21.5-5.1c1.1-0.9,1.7-1.7,1.7-2.1c0-0.6-0.5-2.6-0.8-2.7c-0.3,0-0.5,0.3-1.4,1c-3.5,2.8-10.4,8.3-21.9,7.2
		c-7.6-0.7-12.1-5.4-12.1-11c0-7.2,6.6-11.7,14.4-11.7c20.3,0,48.4,20.2,68.5,20.2c11.4-0.1,19.3-10.4,19.3-16.5
		c-0.1-8-8-11-15.8-11c-14.3-0.2-32.4,6.6-52.2,4.9c-4.7-0.4-10.7-2.9-10.7-8c0-3.3,2.8-6.1,8.6-6.1c4.8,0,10.7,2.3,16.1,4.6
		c-0.4,1.6-0.7,3.2-0.9,4.5c-0.1,1.2,1.3,2.5,1.4,1.9c0.4-1.8,0.8-3.8,1.2-5.7c4.3,1.9,8,3.5,10.4,3.8c4.3,0.4,10.1-1.8,11-6.7
		c0.4-2.4-1.2-6.8-3.5-7.7c-1.7-0.3-4.3,1.1-6.1,2.4c1.1-2.7,2-5.7,1.1-8.3c-0.7-2.1-3.7-4-6.1-2.6c-3.4,1.7-6.2,9.3-8,16.2
		c-5.3-2.7-11.2-5.5-16.7-5.5c-6.4-0.1-9.7,3.9-9.7,8.2c0,4.5,3.9,9.4,12.1,10.1c19.7,1.8,36.4-4.6,50.9-4.5
		c8.4,0,15.9,3.5,15.9,9.5c0,8-10,13.7-17.8,13.8c-18.9,0-45.1-20.2-69-20.2c-8,0-15.4,5.5-15.4,13.7C59.3,49.6,64.5,54.6,73.5,55.4
		z"/>
</g>
</svg>
