<?xml version="1.0" encoding="utf-8"?>
<!-- Generator: Adobe Illustrator 18.1.1, SVG Export Plug-In . SVG Version: 6.00 Build 0)  -->
<svg version="1.1" id="Layer_1" xmlns="http://www.w3.org/2000/svg" xmlns:xlink="http://www.w3.org/1999/xlink" x="0px" y="0px"
	 viewBox="0 0 74.4 40" enable-background="new 0 0 74.4 40" xml:space="preserve">
<g>
	<defs>
		<rect id="SVGID_1_" width="74.4" height="40"/>
	</defs>
	<clipPath id="SVGID_2_">
		<use xlink:href="#SVGID_1_"  overflow="visible"/>
	</clipPath>
	<path clip-path="url(#SVGID_2_)" fill="#FFFFFF" d="M42.2,1.6c0.7-0.5,1.8-0.9,2.5,0.8c0.6,2.2,0.1,4.3-0.9,6.3c0,0-0.6,1-1,1.6
		c-0.4,0.6,1.3-0.2,1.5-0.5l0.3-0.5c1.2-0.8,3.3-1.6,4.9-1.2c0.6,0.2,1.6,1.1,1.3,2.7c-0.9,3.8-4.1,5.1-6.6,4.8
		c-1.9-0.2-4.4-1.4-7.2-2.8C38.1,8.3,39.5,3.9,42.2,1.6 M10.4,39.6c7.9,0.7,13-2,15.3-3.6c0.8-0.7,1.2-1.2,1.2-1.5
		c0-0.5-0.4-1.9-0.6-1.9c-0.2,0-0.4,0.2-1,0.7c-2.5,2-7.4,5.9-15.7,5.2c-5.4-0.5-8.7-3.8-8.6-7.8c0-5.2,4.7-8.3,10.3-8.3
		c14.5,0,34.6,14.4,48.9,14.4C68.4,36.6,74,29.3,74,24.9c-0.1-5.7-5.7-7.9-11.3-7.9c-10.2-0.1-23.1,4.7-37.3,3.5
		c-3.4-0.3-7.7-2-7.7-5.7c0-2.4,2-4.4,6.1-4.3c3.4,0,7.6,1.6,11.5,3.3c-0.3,1.2-0.5,2.3-0.7,3.2c-0.1,0.9,0.9,1.8,1,1.4
		c0.3-1.3,0.6-2.7,0.9-4.1c3,1.3,5.7,2.5,7.4,2.7c3.1,0.3,7.2-1.2,7.9-4.7c0.3-1.7-0.8-4.8-2.5-5.5c-1.2-0.2-3,0.8-4.3,1.7
		c0.8-1.9,1.4-4.1,0.8-5.9c-0.5-1.5-2.6-2.9-4.3-1.8c-2.4,1.2-4.4,6.6-5.7,11.5c-3.8-1.9-8-3.9-11.9-3.9c-4.5,0-6.9,2.8-6.9,5.9
		c0,3.2,2.8,6.7,8.6,7.2c14,1.3,26-3.3,36.3-3.2c6,0,11.4,2.5,11.4,6.8c0,5.7-7.2,9.7-12.7,9.8c-13.5,0-32.2-14.4-49.2-14.4
		c-5.7,0-11,3.9-11,9.8C0.3,35.5,4,39,10.4,39.6"/>
	<path clip-path="url(#SVGID_2_)" fill="none" stroke="#FFFFFF" stroke-width="0.668" stroke-miterlimit="10" d="M42.2,1.6
		c0.7-0.5,1.8-0.9,2.5,0.8c0.6,2.2,0.1,4.3-0.9,6.3c0,0-0.6,1-1,1.6c-0.4,0.6,1.3-0.2,1.5-0.5l0.3-0.5c1.2-0.8,3.3-1.6,4.9-1.2
		c0.6,0.2,1.6,1.1,1.3,2.7c-0.9,3.8-4.1,5.1-6.6,4.8c-1.9-0.2-4.4-1.4-7.2-2.8C38.1,8.3,39.5,3.9,42.2,1.6z M10.4,39.6
		c7.9,0.7,13-2,15.3-3.6c0.8-0.7,1.2-1.2,1.2-1.5c0-0.5-0.4-1.9-0.6-1.9c-0.2,0-0.4,0.2-1,0.7c-2.5,2-7.4,5.9-15.7,5.2
		c-5.4-0.5-8.7-3.8-8.6-7.8c0-5.2,4.7-8.3,10.3-8.3c14.5,0,34.6,14.4,48.9,14.4C68.4,36.6,74,29.3,74,24.9
		c-0.1-5.7-5.7-7.9-11.3-7.9c-10.2-0.1-23.1,4.7-37.3,3.5c-3.4-0.3-7.7-2-7.7-5.7c0-2.4,2-4.4,6.1-4.3c3.4,0,7.6,1.6,11.5,3.3
		c-0.3,1.2-0.5,2.3-0.7,3.2c-0.1,0.9,0.9,1.8,1,1.4c0.3-1.3,0.6-2.7,0.9-4.1c3,1.3,5.7,2.5,7.4,2.7c3.1,0.3,7.2-1.2,7.9-4.7
		c0.3-1.7-0.8-4.8-2.5-5.5c-1.2-0.2-3,0.8-4.3,1.7c0.8-1.9,1.4-4.1,0.8-5.9c-0.5-1.5-2.6-2.9-4.3-1.8c-2.4,1.2-4.4,6.6-5.7,11.5
		c-3.8-1.9-8-3.9-11.9-3.9c-4.5,0-6.9,2.8-6.9,5.9c0,3.2,2.8,6.7,8.6,7.2c14,1.3,26-3.3,36.3-3.2c6,0,11.4,2.5,11.4,6.8
		c0,5.7-7.2,9.7-12.7,9.8c-13.5,0-32.2-14.4-49.2-14.4c-5.7,0-11,3.9-11,9.8C0.3,35.5,4,39,10.4,39.6z"/>
</g>
</svg>
