<?xml version="1.0" encoding="utf-8"?>
<!-- Generator: Adobe Illustrator 18.1.1, SVG Export Plug-In . SVG Version: 6.00 Build 0)  -->
<svg version="1.1" id="Layer_1" xmlns="http://www.w3.org/2000/svg" xmlns:xlink="http://www.w3.org/1999/xlink" x="0px" y="0px"
	 viewBox="0 0 20 25.6" enable-background="new 0 0 20 25.6" xml:space="preserve">
<g>
	<defs>
		<rect id="SVGID_1_" y="0" width="20" height="25.6"/>
	</defs>
	<clipPath id="SVGID_2_">
		<use xlink:href="#SVGID_1_"  overflow="visible"/>
	</clipPath>
	
		<path clip-path="url(#SVGID_2_)" fill="none" stroke="#FFFFFF" stroke-width="2" stroke-linecap="round" stroke-miterlimit="10" d="
		M13.2,12.7c0.2-0.7,0.1-1.5-0.2-2.2c-0.3-0.7-0.9-1.2-1.5-1.4 M15.9,13.6c0.4-1.5,0.3-3.1-0.4-4.6c-0.7-1.5-1.9-2.5-3.2-2.9
		 M18.7,14.5c0.6-2.2,0.4-4.7-0.7-7s-2.9-3.7-4.9-4.4"/>
	
		<path clip-path="url(#SVGID_2_)" fill="none" stroke="#FFFFFF" stroke-width="2" stroke-linecap="round" stroke-miterlimit="10" d="
		M13.1,24c-1.3,0.7-4.4,2.7-9.5-8.3C-1.3,4.8,2,3.1,3.2,2.4c0,0,1.8-1,1.8-1l3,6.5l-1.8,1c-1.9,1.1,2,9.6,3.9,8.6c0.1,0,1.8-1,1.8-1
		l3,6.5C14.9,23,13.2,23.9,13.1,24z"/>
</g>
</svg>
