<?xml version="1.0" encoding="utf-8"?>
<!-- Generator: Adobe Illustrator 18.1.1, SVG Export Plug-In . SVG Version: 6.00 Build 0)  -->
<svg version="1.1" id="Layer_1" xmlns="http://www.w3.org/2000/svg" xmlns:xlink="http://www.w3.org/1999/xlink" x="0px" y="0px"
	 viewBox="0 0 34 34" enable-background="new 0 0 34 34" xml:space="preserve">
<g>
	<defs>
		<rect id="SVGID_1_" width="34" height="34"/>
	</defs>
	<clipPath id="SVGID_2_">
		<use xlink:href="#SVGID_1_"  overflow="visible"/>
	</clipPath>
	<path clip-path="url(#SVGID_2_)" fill="none" stroke="#FFFFFF" stroke-width="2" d="M17,33c8.8,0,16-7.2,16-16S25.8,1,17,1
		S1,8.2,1,17S8.2,33,17,33z"/>
	
		<path clip-path="url(#SVGID_2_)" fill="none" stroke="#FFFFFF" stroke-width="2" stroke-linecap="round" stroke-linejoin="round" d="
		M12,19l-3.7-3.5c-0.3-0.3-0.4-0.7-0.3-1c0.1-0.4,0.4-0.6,0.8-0.7c1.7-0.2,3.4-0.5,5-0.7c0.7-1.5,1.5-3,2.2-4.5
		C16.3,8.2,16.6,8,17,8c0.4,0,0.7,0.2,0.9,0.6c0.7,1.5,1.5,3,2.2,4.5l5,0.7c0.4,0.1,0.7,0.3,0.8,0.7c0.1,0.4,0,0.8-0.3,1
		c-1.2,1.2-2.4,2.3-3.7,3.5c0.3,1.7,0.6,3.3,0.9,5c0.1,0.4-0.1,0.8-0.4,1c-0.3,0.2-0.7,0.3-1.1,0.1c-1.5-0.8-3-1.6-4.5-2.4
		c-1.5,0.8-3,1.6-4.5,2.4c-0.3,0.2-0.7,0.2-1.1-0.1c-0.3-0.2-0.5-0.6-0.4-1C11.4,22.3,11.7,20.7,12,19z"/>
</g>
<polygon fill="#FFFFFF" points="15.5,17.6 13.9,16.1 16.1,15.8 17,13.8 17.9,15.8 20.1,16.1 18.5,17.6 18.9,19.7 17,18.7 15.1,19.7 
	"/>
</svg>
