<?xml version="1.0" encoding="utf-8"?>
<!-- Generator: Adobe Illustrator 18.1.1, SVG Export Plug-In . SVG Version: 6.00 Build 0)  -->
<svg version="1.1" id="Layer_1" xmlns="http://www.w3.org/2000/svg" xmlns:xlink="http://www.w3.org/1999/xlink" x="0px" y="0px"
	 viewBox="0 0 34 34" enable-background="new 0 0 34 34" xml:space="preserve">
<g>
	<defs>
		<circle id="SVGID_1_" cx="17" cy="17" r="17"/>
	</defs>
	<clipPath id="SVGID_2_">
		<use xlink:href="#SVGID_1_"  overflow="visible"/>
	</clipPath>
	<path clip-path="url(#SVGID_2_)" fill="#FFFFFF" d="M11.8,21.8c1.9-2.9,3.3-3.5,5.2-4.2c-1.8-0.5-3.6-0.8-6.6,0.7
		c-0.1-0.9,0-1.9,0.3-2.8c3.4-0.1,4.9,1,6.3,2.2c-0.5-1.9-0.9-3.3-3.7-5.5c0.7-0.5,1.6-0.9,2.5-1c1.8,2.9,1.6,4.8,1.3,6.6
		c1.3-1.3,2.6-2.7,2.8-6.1c0.9,0.4,1.7,1,2.4,1.9c-1.9,2.9-3.2,3.5-5.2,4.2c1.8,0.5,3.6,0.8,6.6-0.7c0.1,0.9,0,1.9-0.3,2.8
		c-3.4,0.1-4.9-1-6.3-2.2c0.5,2,1,3.3,3.7,5.5c-0.7,0.5-1.6,0.9-2.5,1c-1.8-2.9-1.6-4.8-1.3-6.6c-1.3,1.3-2.6,2.7-2.8,6.1
		C13.3,23.2,12.4,22.6,11.8,21.8 M16.9,9.5c-4.5,0-8.1,3.6-8.1,8.1s3.6,8.1,8.1,8.1S25,22,25,17.6S21.4,9.5,16.9,9.5 M11.4,25.2
		L5,36.4l1.8,1l6.4-11.2C12.6,26,12,25.6,11.4,25.2"/>
</g>
<g>
	<defs>
		<rect id="SVGID_3_" width="34" height="34"/>
	</defs>
	<clipPath id="SVGID_4_">
		<use xlink:href="#SVGID_3_"  overflow="visible"/>
	</clipPath>
	<path clip-path="url(#SVGID_4_)" fill="none" stroke="#FFFFFF" stroke-width="2" d="M17,33c8.8,0,16-7.2,16-16S25.8,1,17,1
		S1,8.2,1,17S8.2,33,17,33z"/>
</g>
</svg>
